# xmcd
#
# Track frame offsets:
#	150
#	18683
#	39978
#	57487
#	76672
#	95463
#	116309
#	131423
#	150637
#	169819
#	184722
#	198920
#	217830
#	234515
#	257920
#	279093
#	295970
#	318435
#
# Disc length: 4460
#
# Revision: 1
# Processed by: cddbd v1.5.1PL0 Copyright (c) Steve Scherf et al.
# Submitted via: dBpowerAMP V4.0
# Normalized: r0:TRMNUM
#
DISCID=ee116a12
DTITLE=Faith Hill - Free - Disc 2 
DYEAR=2004
DGENRE=Pop-Folk
TTITLE0=When the lights go down
TTITLE1=Beautiful
TTITLE2=Usaveable
TTITLE3=Stronger
TTITLE4=Baby you belong
TTITLE5=Back to you
TTITLE6=You´re still here
TTITLE7=That´s how love moves
TTITLE8=There will come a day
TTITLE9=This kiss
TTITLE10=This way you love me
TTITLE11=Let me let go
TTITLE12=Piece of my heart
TTITLE13=Love will always win
TTITLE14=One of these days 
TTITLE15=Love must be telling me somesting
TTITLE16=My wild frontier
TTITLE17=You give me love
EXTD=
EXTT0=
EXTT1=
EXTT2=
EXTT3=
EXTT4=
EXTT5=
EXTT6=
EXTT7=
EXTT8=
EXTT9=
EXTT10=
EXTT11=
EXTT12=
EXTT13=
EXTT14=
EXTT15=
EXTT16=
EXTT17=
PLAYORDER=
